<svg class="icon" viewBox="0 0 1024 1024" xmlns="http://www.w3.org/2000/svg" width="16" height="16"><defs><style/></defs><path d="M955.733 546.133h-409.6v409.6c0 18.842-15.291 34.134-34.133 34.134-18.842 0-34.133-15.292-34.133-34.134v-409.6h-409.6c-18.842 0-34.134-15.291-34.134-34.133 0-18.842 15.292-34.133 34.134-34.133h409.6v-409.6c0-18.842 15.291-34.134 34.133-34.134 18.842 0 34.133 15.292 34.133 34.134v409.6h409.6c18.842 0 34.134 15.291 34.134 34.133 0 18.842-15.292 34.133-34.134 34.133z"/></svg>