<?xml version="1.0" standalone="no"?><!DOCTYPE svg PUBLIC "-//W3C//DTD SVG 1.1//EN" "http://www.w3.org/Graphics/SVG/1.1/DTD/svg11.dtd"><svg t="1545641944801" class="icon" style="" viewBox="0 0 1024 1024" version="1.1" xmlns="http://www.w3.org/2000/svg" p-id="2009" xmlns:xlink="http://www.w3.org/1999/xlink" width="64" height="64"><defs><style type="text/css"></style></defs><path d="M458.147366 206.067121l107.577276 0 0 611.801762-107.577276 0 0-611.801762Z" p-id="2010"></path><path d="M339.946753 206.067121c-13.311168-13.311168-13.311168-34.813824 0-48.124992l148.022749-148.022749c13.311168-13.311168 34.813824-13.311168 48.124992 0l148.022749 148.022749c13.311168 13.311168 13.311168 34.813824 0 48.124992L339.946753 206.067121z" p-id="2011"></path><path d="M339.946753 817.868883c-13.311168 13.311168-13.311168 34.813824 0 48.124992l148.022749 148.022749c13.311168 13.311168 34.813824 13.311168 48.124992 0l148.022749-148.022749c13.311168-13.311168 13.311168-34.813824 0-48.124992L339.946753 817.868883z" p-id="2012"></path><path d="M817.868883 339.946753c13.311168-13.311168 34.813824-13.311168 48.124992 0l148.022749 148.022749c13.311168 13.311168 13.311168 34.813824 0 48.124992l-148.022749 148.022749c-13.311168 13.311168-34.813824 13.311168-48.124992 0L817.868883 339.946753z" p-id="2013"></path><path d="M206.067121 339.946753c-13.311168-13.311168-34.813824-13.311168-48.124992 0L9.983376 487.905506c-13.311168 13.311168-13.311168 34.813824 0 48.124992l148.022749 148.022749c13.311168 13.311168 34.813824 13.311168 48.124992 0L206.131117 339.946753z" p-id="2014"></path><path d="M206.067121 458.147366l611.801762 0 0 107.577276-611.801762 0 0-107.577276Z" p-id="2015"></path></svg>